<svg xmlns="http://www.w3.org/2000/svg" width="24" height="24" viewBox="0 0 24 24" fill="none"><g clip-path="url(#clip0_364_1453)"><path d="M23.2785 18.591L18.7785 15.584C18.0295 15.083 17.308 15.1005 16.684 15.6135C14.932 17.05 13.893 16.638 13.724 16.553C12.733 16.057 11.797 15.589 10.3535 14.1465C8.5615 12.3535 7.9145 11.209 7.4475 10.2765C7.261 9.9035 7.046 8.6495 8.2725 7.342C8.846 6.7315 8.899 5.9815 8.422 5.2315C8.0545 4.6535 8.0545 4.6535 7.7655 4.2285C7.4805 3.8085 6.911 2.9695 5.409 0.7215C5.0845 0.2365 4.6235 0 4 0C3.293 0 2.935 0.3585 2.6465 0.6465L1.1465 2.1465C0.0845 3.208 0 3.8165 0 4.5C0 5.3605 1.2425 10.9695 7.146 16.8525C13.0305 22.757 18.634 24 19.494 24H19.527C20.2045 23.99 20.8065 23.9005 21.853 22.8535L23.353 21.3535C23.6415 21.0655 24 20.707 24 20C24 19.376 23.7635 18.915 23.2785 18.591ZM22.6465 20.6465L21.1465 22.1465C20.3045 22.9885 19.9385 22.994 19.494 23C19.4325 22.998 14.0485 22.3635 7.853 16.1455C1.7075 10.0215 1.001 4.548 1 4.5C1 4.0565 1 3.707 1.853 2.8535L3.353 1.3535C3.6165 1.091 3.7215 1 4 1C4.3265 1 4.4635 1.1065 4.578 1.2775C6.0825 3.5295 6.653 4.3705 6.9385 4.79C7.22 5.204 7.22 5.204 7.5785 5.7685C7.8625 6.215 7.7295 6.46 7.5435 6.658C5.983 8.32 6.2135 10.0435 6.553 10.7235C7.0545 11.7265 7.748 12.955 9.6465 14.8535C11.204 16.411 12.258 16.9375 13.2765 17.4475C13.557 17.587 13.923 17.6645 14.308 17.6645C14.971 17.6645 16.0305 17.443 17.318 16.387C17.5005 16.2365 17.6305 16.219 17.7125 16.219C17.856 16.219 18.028 16.2855 18.223 16.4165L22.723 19.4225C22.8935 19.536 23 19.673 23 20C23 20.2785 22.909 20.384 22.6465 20.6465Z" fill="white"></path></g><defs><clipPath id="clip0_364_1453"><rect width="24" height="24" fill="white"></rect></clipPath></defs></svg>