<svg xmlns="http://www.w3.org/2000/svg" width="25" height="25" viewBox="0 0 25 25" fill="none"><path fill-rule="evenodd" clip-rule="evenodd" d="M12.5 1.75C8.777 1.75 5.75 4.804 5.75 8.571C5.75 9.847 6.312 11.43 7.13 13.009C8.931 16.486 11.931 19.988 11.931 19.988C12.073 20.154 12.281 20.25 12.5 20.25C12.719 20.25 12.927 20.154 13.069 19.988C13.069 19.988 16.069 16.486 17.87 13.009C18.688 11.43 19.25 9.847 19.25 8.571C19.25 4.804 16.223 1.75 12.5 1.75ZM12.5 3.25C15.4 3.25 17.75 5.637 17.75 8.571C17.75 10.037 16.82 11.947 15.746 13.728C14.594 15.638 13.246 17.392 12.5 18.32C11.754 17.392 10.406 15.638 9.254 13.728C8.18 11.947 7.25 10.037 7.25 8.571C7.25 5.637 9.6 3.25 12.5 3.25Z" fill="white"></path><path fill-rule="evenodd" clip-rule="evenodd" d="M12.5 5.75C10.982 5.75 9.75 6.982 9.75 8.5C9.75 10.018 10.982 11.25 12.5 11.25C14.018 11.25 15.25 10.018 15.25 8.5C15.25 6.982 14.018 5.75 12.5 5.75ZM12.5 7.25C13.19 7.25 13.75 7.81 13.75 8.5C13.75 9.19 13.19 9.75 12.5 9.75C11.81 9.75 11.25 9.19 11.25 8.5C11.25 7.81 11.81 7.25 12.5 7.25Z" fill="white"></path><path fill-rule="evenodd" clip-rule="evenodd" d="M17.284 17.877C18.097 18.121 18.767 18.423 19.23 18.777C19.53 19.005 19.75 19.228 19.75 19.5C19.75 19.66 19.659 19.805 19.531 19.95C19.319 20.189 19.004 20.404 18.614 20.604C17.236 21.309 15.008 21.75 12.5 21.75C9.992 21.75 7.764 21.309 6.386 20.604C5.996 20.404 5.681 20.189 5.469 19.95C5.341 19.805 5.25 19.66 5.25 19.5C5.25 19.228 5.47 19.005 5.77 18.777C6.233 18.423 6.903 18.121 7.716 17.877C8.112 17.758 8.337 17.339 8.218 16.943C8.099 16.546 7.68 16.321 7.284 16.44C6.046 16.813 5.084 17.324 4.506 17.889C3.998 18.384 3.75 18.938 3.75 19.5C3.75 20.202 4.147 20.902 4.954 21.486C6.37 22.51 9.214 23.25 12.5 23.25C15.786 23.25 18.63 22.51 20.046 21.486C20.853 20.902 21.25 20.202 21.25 19.5C21.25 18.938 21.002 18.384 20.494 17.889C19.916 17.324 18.954 16.813 17.716 16.44C17.32 16.321 16.901 16.546 16.782 16.943C16.663 17.339 16.888 17.758 17.284 17.877Z" fill="white"></path></svg>