<svg xmlns="http://www.w3.org/2000/svg" width="13" height="13" viewBox="0 0 13 13" fill="none"><g clip-path="url(#clip0_364_1469)"><path d="M2.25781 12.5H6.17188V8.23438H4.76562V6.82812H6.17188V5.07031C6.17188 4.10104 6.96042 3.3125 7.92969 3.3125H9.6875V4.71875H8.28125C7.89352 4.71875 7.57812 5.03415 7.57812 5.42188V6.82812H9.62405L9.38968 8.23438H7.57812V12.5H10.7422C11.7115 12.5 12.5 11.7115 12.5 10.7422V2.25781C12.5 1.28854 11.7115 0.5 10.7422 0.5H2.25781C1.28854 0.5 0.5 1.28854 0.5 2.25781V10.7422C0.5 11.7115 1.28854 12.5 2.25781 12.5ZM1.20312 2.25781C1.20312 1.67627 1.67627 1.20312 2.25781 1.20312H10.7422C11.3237 1.20312 11.7969 1.67627 11.7969 2.25781V10.7422C11.7969 11.3237 11.3237 11.7969 10.7422 11.7969H8.28125V8.9375H9.98532L10.4541 6.125H8.28125V5.42188H10.3906V2.60938H7.92969C6.57269 2.60938 5.46875 3.71332 5.46875 5.07031V6.125H4.0625V8.9375H5.46875V11.7969H2.25781C1.67627 11.7969 1.20312 11.3237 1.20312 10.7422V2.25781Z" fill="white"></path></g><defs><clipPath id="clip0_364_1469"><rect width="12" height="12" fill="white" transform="translate(0.5 0.5)"></rect></clipPath></defs></svg>