<svg xmlns="http://www.w3.org/2000/svg" width="24" height="24" viewBox="0 0 24 24" fill="none"><path d="M22.4401 6.66396C22.2908 6.45775 22.0946 6.29001 21.8677 6.17459C21.6408 6.0592 21.3897 5.99943 21.1351 6.00021H5.95885L5.53885 3.7502C5.47765 3.37924 5.287 3.04196 5.00072 2.79824C4.71445 2.55453 4.35107 2.42014 3.9751 2.41895H1.7251C1.60078 2.41895 1.48155 2.46833 1.39364 2.55624C1.30573 2.64415 1.25635 2.76338 1.25635 2.8877C1.25635 3.01202 1.30573 3.13124 1.39364 3.21915C1.48155 3.30706 1.60078 3.35645 1.7251 3.35645H3.9751C4.1281 3.35721 4.27607 3.41111 4.39375 3.50893C4.51139 3.60675 4.59141 3.7424 4.6201 3.89271L7.2226 18.0302C7.24427 18.1364 7.30206 18.2318 7.38617 18.3002C7.47029 18.3685 7.57547 18.4057 7.68385 18.4052H8.7376C8.56424 18.6726 8.4556 18.9768 8.42027 19.2935C8.38495 19.6103 8.42387 19.9309 8.53405 20.23C8.64422 20.529 8.82254 20.7983 9.05492 21.0164C9.28727 21.2346 9.56725 21.3955 9.87269 21.4866C10.1781 21.5777 10.5005 21.5964 10.8144 21.5411C11.1283 21.4859 11.425 21.3583 11.6809 21.1684C11.9369 20.9785 12.1451 20.7316 12.289 20.4472C12.433 20.1629 12.5087 19.8489 12.5101 19.5302C12.511 19.1312 12.3964 18.7405 12.1801 18.4052H14.2838C14.0831 18.7149 13.9696 19.0729 13.9554 19.4417C13.9411 19.8105 14.0266 20.1762 14.2028 20.5005C14.3791 20.8247 14.6395 21.0954 14.9567 21.2841C15.2738 21.4726 15.6361 21.5722 16.0051 21.5722C16.3741 21.5722 16.7363 21.4726 17.0535 21.2841C17.3707 21.0954 17.6311 20.8247 17.8073 20.5005C17.9836 20.1762 18.0691 19.8105 18.0548 19.4417C18.0406 19.0729 17.9271 18.7149 17.7263 18.4052H18.3751C18.4994 18.4052 18.6187 18.3558 18.7066 18.2679C18.7945 18.18 18.8438 18.0608 18.8438 17.9365C18.8438 17.8121 18.7945 17.6929 18.7066 17.605C18.6187 17.5171 18.4994 17.4677 18.3751 17.4677H8.07385L7.73635 15.6302H18.7838C19.1109 15.6303 19.4301 15.5301 19.6984 15.343C19.9666 15.1558 20.171 14.8909 20.2838 14.5839L22.6351 8.11521C22.7203 7.87521 22.7471 7.61838 22.7132 7.36596C22.6793 7.11359 22.5857 6.87291 22.4401 6.66396ZM11.5651 19.5302C11.5651 19.7527 11.4991 19.9702 11.3755 20.1552C11.2519 20.3402 11.0762 20.4844 10.8706 20.5696C10.6651 20.6547 10.4389 20.677 10.2206 20.6336C10.0024 20.5902 9.80192 20.483 9.64461 20.3257C9.48726 20.1684 9.38012 19.9679 9.3367 19.7497C9.29331 19.5315 9.31559 19.3053 9.40075 19.0997C9.48587 18.8941 9.63006 18.7184 9.81509 18.5948C10.0001 18.4712 10.2176 18.4052 10.4401 18.4052C10.5884 18.4042 10.7356 18.4326 10.8729 18.4887C11.0103 18.5448 11.1352 18.6275 11.2405 18.732C11.3457 18.8366 11.4292 18.961 11.4862 19.098C11.5433 19.2349 11.5726 19.3818 11.5726 19.5302H11.5651ZM17.1113 19.5302C17.1113 19.7527 17.0454 19.9702 16.9217 20.1552C16.7981 20.3402 16.6224 20.4844 16.4168 20.5696C16.2113 20.6547 15.9851 20.677 15.7669 20.6336C15.5486 20.5902 15.3482 20.483 15.1909 20.3257C15.0335 20.1684 14.9264 19.9679 14.8829 19.7497C14.8396 19.5315 14.8618 19.3053 14.947 19.0997C15.0321 18.8941 15.1763 18.7184 15.3613 18.5948C15.5463 18.4712 15.7639 18.4052 15.9863 18.4052C16.1347 18.4042 16.2818 18.4326 16.4192 18.4887C16.5565 18.5448 16.6814 18.6275 16.7867 18.732C16.892 18.8366 16.9755 18.961 17.0325 19.098C17.0895 19.2349 17.1188 19.3818 17.1188 19.5302H17.1113ZM21.7501 7.80396L19.3988 14.2689C19.3528 14.3951 19.2691 14.5041 19.1591 14.5813C19.0492 14.6584 18.9182 14.6999 18.7838 14.7002H7.56385L6.13135 6.92271H21.1313C21.2366 6.9217 21.3405 6.94645 21.4339 6.99483C21.5274 7.0432 21.6076 7.1137 21.6676 7.20021C21.7294 7.28654 21.7693 7.38663 21.7837 7.49185C21.798 7.59708 21.7865 7.70418 21.7501 7.80396Z" fill="#272727"></path></svg>