<svg xmlns="http://www.w3.org/2000/svg" width="13" height="13" viewBox="0 0 13 13" fill="none"><g clip-path="url(#clip0_364_1468)"><path d="M6.5 1.58047C8.10313 1.58047 8.29297 1.5875 8.92344 1.61562C9.50938 1.64141 9.82578 1.73984 10.0367 1.82188C10.3156 1.92969 10.5172 2.06094 10.7258 2.26953C10.9367 2.48047 11.0656 2.67969 11.1734 2.95859C11.2555 3.16953 11.3539 3.48828 11.3797 4.07187C11.4078 4.70469 11.4148 4.89453 11.4148 6.49531C11.4148 8.09844 11.4078 8.28828 11.3797 8.91875C11.3539 9.50469 11.2555 9.82109 11.1734 10.032C11.0656 10.3109 10.9344 10.5125 10.7258 10.7211C10.5148 10.932 10.3156 11.0609 10.0367 11.1688C9.82578 11.2508 9.50703 11.3492 8.92344 11.375C8.29063 11.4031 8.10078 11.4102 6.5 11.4102C4.89688 11.4102 4.70703 11.4031 4.07656 11.375C3.49063 11.3492 3.17422 11.2508 2.96328 11.1688C2.68438 11.0609 2.48281 10.9297 2.27422 10.7211C2.06328 10.5102 1.93438 10.3109 1.82656 10.032C1.74453 9.82109 1.64609 9.50234 1.62031 8.91875C1.59219 8.28594 1.58516 8.09609 1.58516 6.49531C1.58516 4.89219 1.59219 4.70234 1.62031 4.07187C1.64609 3.48594 1.74453 3.16953 1.82656 2.95859C1.93438 2.67969 2.06563 2.47812 2.27422 2.26953C2.48516 2.05859 2.68438 1.92969 2.96328 1.82188C3.17422 1.73984 3.49297 1.64141 4.07656 1.61562C4.70703 1.5875 4.89688 1.58047 6.5 1.58047ZM6.5 0.5C4.87109 0.5 4.66719 0.507031 4.02734 0.535156C3.38984 0.563281 2.95156 0.666406 2.57188 0.814062C2.17578 0.96875 1.84063 1.17266 1.50781 1.50781C1.17266 1.84063 0.96875 2.17578 0.814063 2.56953C0.666406 2.95156 0.563281 3.3875 0.535156 4.025C0.507031 4.66719 0.5 4.87109 0.5 6.5C0.5 8.12891 0.507031 8.33281 0.535156 8.97266C0.563281 9.61016 0.666406 10.0484 0.814063 10.4281C0.96875 10.8242 1.17266 11.1594 1.50781 11.4922C1.84063 11.825 2.17578 12.0312 2.56953 12.1836C2.95156 12.3313 3.3875 12.4344 4.025 12.4625C4.66484 12.4906 4.86875 12.4977 6.49766 12.4977C8.12656 12.4977 8.33047 12.4906 8.97031 12.4625C9.60781 12.4344 10.0461 12.3313 10.4258 12.1836C10.8195 12.0312 11.1547 11.825 11.4875 11.4922C11.8203 11.1594 12.0266 10.8242 12.1789 10.4305C12.3266 10.0484 12.4297 9.6125 12.4578 8.975C12.4859 8.33516 12.493 8.13125 12.493 6.50234C12.493 4.87344 12.4859 4.66953 12.4578 4.02969C12.4297 3.39219 12.3266 2.95391 12.1789 2.57422C12.0312 2.17578 11.8273 1.84063 11.4922 1.50781C11.1594 1.175 10.8242 0.96875 10.4305 0.816406C10.0484 0.66875 9.6125 0.565625 8.975 0.5375C8.33281 0.507031 8.12891 0.5 6.5 0.5Z" fill="white"></path><path d="M6.5 3.41797C4.79844 3.41797 3.41797 4.79844 3.41797 6.5C3.41797 8.20156 4.79844 9.58203 6.5 9.58203C8.20156 9.58203 9.58203 8.20156 9.58203 6.5C9.58203 4.79844 8.20156 3.41797 6.5 3.41797ZM6.5 8.49922C5.39609 8.49922 4.50078 7.60391 4.50078 6.5C4.50078 5.39609 5.39609 4.50078 6.5 4.50078C7.60391 4.50078 8.49922 5.39609 8.49922 6.5C8.49922 7.60391 7.60391 8.49922 6.5 8.49922Z" fill="white"></path><path d="M10.4234 3.2957C10.4234 3.69414 10.1 4.01524 9.70391 4.01524C9.30547 4.01524 8.98438 3.6918 8.98438 3.2957C8.98438 2.89727 9.30781 2.57617 9.70391 2.57617C10.1 2.57617 10.4234 2.89961 10.4234 3.2957Z" fill="white"></path></g><defs><clipPath id="clip0_364_1468"><rect width="12" height="12" fill="white" transform="translate(0.5 0.5)"></rect></clipPath></defs></svg>